<?xml version="1.0" standalone="no"?><!DOCTYPE svg PUBLIC "-//W3C//DTD SVG 1.1//EN" "http://www.w3.org/Graphics/SVG/1.1/DTD/svg11.dtd"><svg t="1778551672709" class="icon" viewBox="0 0 1024 1024" version="1.1" xmlns="http://www.w3.org/2000/svg" p-id="2411" xmlns:xlink="http://www.w3.org/1999/xlink" width="100" height="100"><path d="M512 512m-512 0a512 512 0 1 0 1024 0 512 512 0 1 0-1024 0Z" fill="#D6EBF5" p-id="2412"></path><path d="M644.976307 748.478204L640.060502 599.037731H379.447208l-4.915805 149.21359C370.90127 857.684703 428.454003 949.950582 502.569217 954.790759l3.630133 0.226884c78.350369 4.159527 142.558346-90.980207 138.776957-206.539439" fill="#F8C5AE" p-id="2413"></path><path d="M354.3161 570.914032c-31.763663 13.764254-58.611521-29.948597-67.686853-48.628655-16.25997-33.427474-3.857016-71.770753 12.478582-79.862925 14.898671-7.411521 30.402363 2.193205 30.402363 2.193205s26.469719 24.805908 32.595569 77.291581c3.705761 31.385524-7.78966 49.006795-7.789661 49.006794" fill="#FAC5AC" p-id="2414"></path><path d="M669.62491 570.870925c31.763663 13.764254 58.611521-29.948597 67.686854-48.628656 16.25997-33.427474 3.857016-71.770753-12.478582-79.862925-14.898671-7.411521-30.402363 2.193205-30.402364 2.193205s-26.469719 24.805908-32.595568 77.291581c-3.630133 31.385524 7.78966 49.006795 7.78966 49.006795" fill="#FAC5AC" p-id="2415"></path><path d="M505.269129 206.917578c-135.373708 0-204.421861 117.374298-180.75037 254.336189 11.646677 67.308715 11.19291 65.947415 26.545347 132.953619C358.097489 624.685377 423.893648 723.757755 515.705761 723.757755c85.837518 0 148.079173-96.576662 155.036927-127.735303 14.671787-65.644904 15.503693-67.157459 24.42777-134.693058 18.150665-137.793796-45.376662-254.336189-180.750369-254.336189h-9.15096z" fill="#FFD2BD" p-id="2416"></path><path d="M514.873855 726.858493c-46.435451 0-84.022452-24.957164-107.315805-45.906056-1.210044-1.058789-1.285672-2.873855-0.226883-4.083899 1.058789-1.210044 2.949483-1.285672 4.083899-0.226884 22.612703 20.268242 58.838405 44.393501 103.458789 44.393501 43.788479 0 79.257903-25.864697 101.265584-47.494239 1.134417-1.134417 2.949483-1.134417 4.083899 0 1.134417 1.134417 1.134417 2.949483 0 4.083899-22.763959 22.537075-59.594682 49.233678-105.349483 49.233678" fill="#D28B6A" p-id="2417"></path><path d="M606.005318 480.009453c0 12.629838-7.714032 22.839586-17.31876 22.839587-9.529099 0-17.318759-10.209749-17.318759-22.839587s7.78966-22.839586 17.318759-22.839586c9.529099 0 17.318759 10.209749 17.31876 22.839586M444.691285 480.009453c0 12.629838-7.78966 22.839586-17.318759 22.839587-9.529099 0-17.318759-10.209749-17.318759-22.839587s7.714032-22.839586 17.318759-22.839586c9.529099 0 17.318759 10.209749 17.318759 22.839586" fill="#5C4E4A" p-id="2418"></path><path d="M530.528804 564.788183h-30.931758c-3.176366 0-5.823338-2.571344-5.823338-5.74771 0-3.176366 2.571344-5.74771 5.823338-5.747711h25.032792l-2.268834-93.551551c0-1.058789 0.226883-2.193205 0.831906-3.100738l17.696898-29.267947c1.663811-2.7226 5.218316-3.630133 7.940916-1.966322 2.7226 1.663811 3.630133 5.142688 1.966322 7.940916l-16.789365 27.755391 2.420089 97.786706c0 1.588183-0.529394 3.025111-1.663811 4.159527-1.210044 1.134417-2.7226 1.739439-4.235155 1.739439" fill="#E7BBA7" p-id="2419"></path><path d="M528.713737 643.89483h-31.461152c-3.176366 0-5.823338-2.571344-5.823338-5.74771s2.571344-5.74771 5.823338-5.747711h31.461152c3.176366 0 5.823338 2.571344 5.823338 5.747711s-2.571344 5.74771-5.823338 5.74771" fill="#EDBEA8" p-id="2420"></path><path d="M539.225997 604.492762h-55.435155c-9.529099 0-18.680059-2.949483-26.469719-8.545938-2.571344-1.890694-3.176366-5.445199-1.285672-8.016543 1.890694-2.571344 5.520827-3.176366 8.092171-1.285672 5.74771 4.159527 12.55421 6.352733 19.66322 6.352732H539.225997c8.016544 0 15.730576-2.344461 22.38582-6.655244 2.646972-1.739439 6.277105-0.983161 8.016543 1.663811 1.739439 2.646972 0.983161 6.277105-1.663811 8.016544-8.545938 5.520827-18.453176 8.47031-28.738552 8.47031" fill="#D96C4C" p-id="2421"></path><path d="M657.961595 319.07356c9.453471 40.763368 7.335894 85.837518 7.335894 85.837518l12.55421 19.058198 12.705465 64.964254c6.730871-29.192319 12.251699-88.711374 12.251699-96.425406 0-124.180798-62.771049-214.555982-185.81743-214.555982-142.558346 0-202.833678 85.610635-202.833678 214.404727 0 51.578139 15.654948 98.089217 15.654948 98.089217l7.487149-66.47681s10.663516-16.864993 11.419793-19.511964c2.7226-9.755982 1.134417-47.721123 10.285377-85.535008 0 0 292.452585 0.151256 298.956573 0.151256" fill="#9E7D6C" p-id="2422"></path><path d="M467.90901 432.817725h-0.453766l-74.417726-5.974594-15.57932 5.293944c-3.025111 1.058789-6.352733-0.605022-7.335894-3.554505-1.058789-3.025111 0.605022-6.277105 3.630133-7.335893l16.713737-5.672083c0.756278-0.226883 1.588183-0.378139 2.344461-0.302511l75.62777 6.050221c3.176366 0.302511 5.520827 3.025111 5.293944 6.201477-0.302511 3.025111-2.873855 5.293944-5.823339 5.293944M550.192024 432.817725c-2.949483 0-5.520827-2.268833-5.747711-5.293944-0.226883-3.176366 2.117578-5.974594 5.293944-6.201477l75.62777-6.050221c0.831905-0.075628 1.588183 0 2.34446 0.302511l16.63811 5.672083c3.025111 1.058789 4.613294 4.310783 3.630133 7.335893-1.058789 3.025111-4.310783 4.613294-7.335894 3.554505l-15.57932-5.293944-74.417726 5.974594h-0.453766M309.317578 317.636632c-10.890399 55.208272 7.638405 111.55096 58.687149 10.814771 22.839586 34.108124 128.718464 107.693944 96.122895 7.033383 54.300739 47.645495 115.181093 63.905465 89.618907 11.344165 54.300739 56.267061 127.054653 58.460266 94.534712 6.503988 96.65229 85.535007 56.493944-23.822747 56.493944-23.822747s34.637518 20.419498 28.209158-21.629542c-7.638405-49.763072-71.695126-97.408567-71.695126-97.408567s29.343575-11.87356-11.949187-33.57873c-41.292762-21.629542-102.097489-13.007976-102.097489-13.007976s32.595569-6.503988 8.697193-21.629542-101.0387-10.814771-147.701034 42.200295c0 0-68.670015-2.344461-88.030724 23.822747-15.201182 20.570753 13.007976 31.385524 13.007977 31.385525s-32.368685 21.100148-43.485968 45.452289c-10.890399 23.822747 19.587592 32.519941 19.587593 32.519941" fill="#5C4E4A" p-id="2423"></path><path d="M645.104874 749.471196c112.609749 18.680059 216.522304 42.880945 272.108715 75.552142C823.586411 946.02777 676.868538 1024 512 1024 345.16514 1024 196.934712 944.212703 103.458789 820.712555 115.105465 813.754801 126.676514 808.460857 138.171935 804.981979 199.959823 770.420089 277.402659 761.420384 374.357459 749.471196c4.462038 9.680355 15.125554 66.325554 139.306352 64.888627C627.029838 812.922895 641.701625 756.958346 645.104874 749.471196z" fill="#F3F9FD" p-id="2424"></path><path d="M685.490103 800.746824c1.663811-1.134417 3.932644-0.68065 5.067061 0.907533s0.68065 3.857016-0.983161 4.991433C598.518168 867.450517 501.941507 872.290694 412.927622 844.005908c-11.117282-3.554505-21.02452-7.335894-29.646086-11.117282l-3.478877-1.512555c-1.058789-0.529394-2.117578-0.983161-3.100739-1.436928l-3.403249-1.663811c-0.378139-0.151256-0.605022-0.302511-0.831906-0.453766-1.739439-0.983161-2.420089-3.100739-1.436927-4.840178 0.983161-1.739439 3.176366-2.344461 4.991432-1.436927l1.815067 0.983161 0.756277 0.378139c2.193205 1.058789 4.764549 2.268833 7.638405 3.554505 8.394682 3.705761 18.075037 7.335894 28.965436 10.814771 86.971935 27.528508 181.279764 22.915214 270.293648-36.528213z" fill="#AEC7DF" p-id="2425"></path></svg>